<svg version="1.1" id="Layer_1" xmlns="http://www.w3.org/2000/svg" xmlns:xlink="http://www.w3.org/1999/xlink" x="0px" y="0px"
	 width="100%" viewBox="0 0 512 512" enable-background="new 0 0 512 512" xml:space="preserve">
<path fill="#000000" opacity="1.000000" stroke="none" 
	d="
M5.981693,276.000000 
	C5.982634,188.341553 5.984086,101.183098 5.984881,14.024643 
	C5.984949,6.603857 5.983723,6.665592 13.488781,6.568542 
	C92.474396,5.547148 171.463287,6.284172 250.450455,6.137686 
	C322.266388,6.004499 394.082825,6.079166 465.898956,6.159677 
	C478.053650,6.173303 490.200043,6.778234 502.365265,6.176458 
	C508.451355,5.875396 508.865479,6.551570 508.867401,12.692457 
	C508.880035,53.179855 509.266815,93.672142 508.766266,134.153366 
	C508.201660,179.813339 508.191986,225.473663 508.602203,271.124573 
	C508.867279,300.619751 508.316498,330.099854 508.430969,359.586609 
	C508.612762,406.410248 508.814880,453.233826 509.024292,500.057343 
	C509.060974,508.259277 509.076965,508.275116 500.671173,508.274536 
	C338.519745,508.263336 176.368332,508.253082 14.216905,508.242706 
	C5.923653,508.242157 5.965562,508.242523 5.967114,499.977631 
	C5.981097,425.485077 5.979241,350.992554 5.981693,276.000000 
M276.500000,19.045181 
	C193.012009,19.133778 109.524002,19.220873 26.036011,19.313820 
	C19.367542,19.321243 19.350662,19.339954 19.322451,25.937840 
	C19.021812,96.256035 18.557747,166.574066 18.481569,236.892532 
	C18.415138,298.212158 18.778263,359.532318 18.971512,420.852173 
	C19.043459,443.682251 19.258562,466.512329 19.195013,489.341827 
	C19.183527,493.468384 20.548683,494.906464 24.623928,494.884521 
	C30.445234,494.853149 36.269650,495.588531 42.092258,495.581848 
	C191.064499,495.410583 340.037781,496.210297 489.009583,495.170593 
	C493.807587,495.137115 495.778778,493.426514 495.558472,488.808380 
	C495.502930,487.644897 495.568542,486.475922 495.568604,485.309448 
	C495.577942,332.496826 495.586731,179.684204 495.593781,26.871572 
	C495.594116,19.280457 495.587036,19.240759 487.970306,19.233110 
	C417.813538,19.162666 347.656769,19.107031 276.500000,19.045181 
z"/>
<path fill="#000000" opacity="1.000000" stroke="none" 
	d="
M95.286652,135.558594 
	C92.863388,137.433594 90.758614,137.755875 88.862885,135.471588 
	C86.894791,133.100067 87.344566,130.637726 89.388840,128.767365 
	C93.219582,125.262581 92.487122,122.554024 88.747391,119.524323 
	C85.784172,117.123703 83.156311,114.278641 80.559044,111.465210 
	C77.849762,108.530449 75.357430,107.538322 72.395576,111.153572 
	C71.232582,112.573112 69.564438,113.562386 67.543526,113.222977 
	C64.218727,112.664581 62.858124,108.664703 65.574051,105.915375 
	C69.290848,102.152832 68.883911,99.232941 65.256523,95.890182 
	C63.836914,94.581978 62.238350,92.519508 64.235565,90.718300 
	C66.171173,88.972656 68.268646,90.716644 69.425095,92.125778 
	C73.120514,96.628654 75.890968,94.890991 79.101585,91.500763 
	C84.253586,86.060524 89.644577,80.842026 95.040054,75.639198 
	C97.264282,73.494392 98.177719,71.514664 95.921967,68.809113 
	C94.862251,67.538086 93.985207,65.824120 95.540375,64.318581 
	C97.133057,62.776726 98.734367,63.802608 99.945023,64.968529 
	C102.673927,67.596619 104.857681,66.078293 106.818306,64.105011 
	C109.068535,61.840271 110.829102,61.913071 113.084465,64.222954 
	C115.261673,66.452797 115.744026,68.251129 113.243156,70.452156 
	C110.522285,72.846817 110.840469,75.266258 113.304871,77.710800 
	C116.498627,80.878830 119.751328,84.004135 122.726357,87.370781 
	C125.176750,90.143738 127.436867,90.764488 130.158310,87.916290 
	C132.468842,85.498138 134.571167,85.684700 136.935989,88.105804 
	C139.020264,90.239693 139.278824,92.003250 136.919464,93.909035 
	C133.363129,96.781708 134.088608,99.242935 137.257843,101.997124 
	C140.647003,104.942451 143.771439,108.205841 146.880127,111.455994 
	C149.121887,113.799782 151.135788,114.293602 153.630280,111.775230 
	C155.488815,109.898880 157.811310,108.620995 160.201141,110.930267 
	C162.631958,113.279152 162.054291,115.814507 159.794830,117.899071 
	C157.255615,120.241745 157.357086,122.147224 159.879623,124.489296 
	C163.662354,128.001419 167.285126,131.697769 170.811340,135.469650 
	C172.869461,137.671158 174.523254,137.682739 176.644150,135.574265 
	C178.415009,133.813766 180.119781,131.168182 183.155823,134.341553 
	C185.704224,137.005249 186.253540,139.447479 183.439758,142.046173 
	C180.964066,144.332626 181.538773,146.155945 183.720825,148.277313 
	C188.129578,152.563431 192.377991,157.014450 196.415543,161.116074 
	C200.711746,161.512741 202.015427,152.720886 207.483246,158.603455 
	C212.347641,163.836838 204.601273,164.981949 205.009827,169.118240 
	C209.375488,173.560883 214.131790,178.400131 218.886948,183.240509 
	C220.711182,185.097443 222.136108,183.916580 223.605911,182.668747 
	C225.887558,180.731705 228.356796,179.137192 231.096695,181.732117 
	C234.146942,184.621002 232.219589,187.134430 230.149277,189.508606 
	C229.024872,190.798050 227.748352,192.080643 229.362045,193.801193 
	C234.117050,198.871033 238.912323,203.903122 243.747681,209.008972 
	C245.910721,207.319855 247.091934,206.432510 248.234161,205.497574 
	C250.120697,203.953384 252.022018,203.374420 253.999512,205.315414 
	C255.878021,207.159256 256.812134,209.260330 254.660797,211.398727 
	C251.279984,214.759171 252.373123,217.350479 255.495880,220.131500 
	C258.726318,223.008377 261.662964,226.214355 264.743317,229.260941 
	C267.087646,231.579544 269.429901,232.279449 272.001221,229.462082 
	C273.889191,227.393494 275.945160,227.283173 278.059662,229.348267 
	C280.324036,231.559753 280.316193,233.704330 277.997955,235.757690 
	C274.820099,238.572388 275.461945,240.981613 278.332397,243.630203 
	C281.757629,246.790695 284.982788,250.173782 288.206879,253.544403 
	C290.174957,255.601944 292.025940,255.902573 294.198792,253.864944 
	C296.429047,251.773514 298.778656,249.464935 301.838013,252.620850 
	C304.880493,255.759369 302.326782,258.051819 300.459351,260.367035 
	C298.995056,262.182556 298.763275,263.956116 300.459961,265.718781 
	C304.945160,270.378540 309.450256,275.019165 314.040955,279.764038 
	C315.974243,278.328033 317.402191,277.464325 318.589813,276.345520 
	C321.321136,273.772461 323.456757,274.627991 325.851257,276.984650 
	C328.388824,279.482056 326.829987,281.098663 325.081787,282.785004 
	C322.013550,285.744629 322.186188,288.318024 325.535095,291.039886 
	C327.979950,293.026947 330.116516,295.403168 332.322357,297.672150 
	C335.681763,301.127655 338.798767,304.787750 343.549103,299.159332 
	C345.102844,297.318420 347.229828,298.478546 348.757629,300.096039 
	C350.329559,301.760223 351.019501,303.758759 349.158417,305.371735 
	C344.494659,309.413757 346.743744,312.415649 350.192383,315.573151 
	C353.139069,318.271149 356.007507,321.074280 358.703125,324.020752 
	C361.004730,326.536560 362.974457,326.610229 365.378052,324.187927 
	C367.391541,322.158783 369.561096,320.077393 372.532623,323.102386 
	C375.307434,325.927155 373.865417,328.314026 371.821381,330.478973 
	C369.502289,332.935272 369.676453,334.987488 372.024078,337.280396 
	C376.075897,341.237793 380.050659,345.276978 383.970276,349.365662 
	C386.066010,351.551788 388.015167,351.983673 390.348694,349.714600 
	C392.140289,347.972565 394.096252,347.637756 395.993866,349.723755 
	C397.790710,351.698975 398.455200,353.893311 396.429596,355.931000 
	C393.752228,358.624329 395.042175,360.464386 397.157593,362.603943 
	C401.363861,366.858185 405.409119,371.271545 408.881378,374.942932 
	C411.857117,375.207733 412.670929,373.659729 413.934631,372.956268 
	C415.907898,371.857880 417.746094,371.749786 419.356415,373.536255 
	C420.899597,375.248291 422.139648,377.302155 420.249481,379.293060 
	C417.242584,382.460266 418.987274,384.545044 421.355072,386.786530 
	C423.895111,389.191071 426.329041,391.707336 428.824738,394.159088 
	C431.664917,396.949249 434.249451,400.376526 438.749603,396.291138 
	C440.117920,395.048981 441.948578,396.051025 443.152100,397.409637 
	C444.510620,398.943237 444.934601,400.912720 443.741913,402.479706 
	C440.917114,406.190735 443.022003,408.533569 445.529541,411.035156 
	C447.412567,412.913757 449.149109,414.946991 450.860107,416.987518 
	C451.974884,418.317047 452.859528,419.829407 451.166565,421.365326 
	C449.641693,422.748749 448.365387,421.717621 447.232025,420.708771 
	C444.743469,418.493500 442.222565,416.301147 439.891083,413.926483 
	C437.459564,411.449982 435.475647,411.100098 432.849945,413.886841 
	C427.252563,419.827454 421.434418,425.565277 415.580902,431.256805 
	C413.185242,433.586121 412.871063,435.506439 415.430328,437.929871 
	C416.976532,439.394043 418.180176,441.251312 419.379944,443.037872 
	C420.060608,444.051483 420.122314,445.265930 419.115692,446.242371 
	C418.029633,447.295929 416.716492,446.924866 415.981049,446.080536 
	C410.525177,439.816833 405.425659,439.456238 399.963928,446.252747 
	C398.263519,448.368744 396.365845,446.215149 394.963684,444.809570 
	C393.520325,443.362701 392.967926,441.793365 394.454559,439.957825 
	C396.407593,437.546478 399.857178,435.657196 399.494202,432.280273 
	C399.083893,428.462830 395.233337,426.535400 392.878693,423.787964 
	C392.230042,423.031189 391.474640,422.365326 390.762268,421.663818 
	C384.495789,415.492981 384.617065,414.933472 378.676575,421.099487 
	C376.145111,423.726990 373.995758,423.486938 371.473846,420.989777 
	C368.713257,418.256256 370.145203,416.382812 372.213104,414.297180 
	C373.948425,412.547058 375.997375,411.031708 376.892822,409.022736 
	C372.091064,403.923004 367.449768,398.964661 362.771027,394.041840 
	C361.318695,392.513763 359.923157,392.843079 358.451752,394.211334 
	C356.750458,395.793335 354.972900,397.323090 353.071899,398.651520 
	C351.416016,399.808685 349.579498,399.829285 348.102325,398.201477 
	C346.599579,396.545471 346.198914,394.719604 347.661346,392.781738 
	C347.962219,392.383026 348.251801,391.975769 348.550995,391.575775 
	C353.677612,384.722778 353.652283,384.747620 347.742065,378.653046 
	C344.041656,374.837128 340.431885,370.933258 337.141876,367.450470 
	C333.639313,367.999481 332.267365,370.080078 330.514069,371.505554 
	C328.557404,373.096405 326.882172,373.684418 324.881317,371.647156 
	C322.965515,369.696442 322.658173,367.938477 324.344147,365.519348 
	C328.518616,359.529633 328.421204,359.450775 323.205048,354.142578 
	C321.453308,352.359924 319.683746,350.593292 317.879517,348.863983 
	C312.604858,343.808319 312.555756,343.761597 306.681793,348.059387 
	C304.532043,349.632294 302.754150,349.522888 300.943298,347.688416 
	C298.992035,345.711639 298.827087,343.912964 300.772003,341.622955 
	C305.318665,336.269562 305.231445,336.175293 300.214294,331.137756 
	C297.509827,328.422333 294.694794,325.814331 292.051178,323.041931 
	C289.820526,320.702606 287.760132,320.285980 285.280273,322.720825 
	C283.114990,324.846863 280.683563,327.168793 277.583038,324.230286 
	C274.317535,321.135437 276.684814,318.531036 278.661713,315.993652 
	C279.468811,314.957733 280.294952,313.936707 281.038971,313.001282 
	C276.224762,307.933563 271.678009,302.898590 266.847839,298.152100 
	C263.730011,295.088318 262.213867,298.799591 260.421539,300.308319 
	C257.162628,303.051544 254.731308,302.817047 252.881119,299.358917 
	C251.681778,297.117249 252.689926,295.328857 254.220078,294.019104 
	C258.286987,290.537964 257.016388,287.724121 253.708542,284.599762 
	C249.723816,280.836090 246.019272,276.775818 242.276596,272.929382 
	C239.395706,273.580841 238.207352,275.775391 236.512512,277.253662 
	C234.577148,278.941772 232.827667,279.295319 230.796371,277.492065 
	C228.701187,275.632141 228.061966,273.408295 230.131668,271.438477 
	C234.786301,267.008514 233.293198,263.505249 229.064865,259.972809 
	C227.026550,258.269958 225.295822,256.204224 223.361542,254.370605 
	C217.829071,249.126022 216.869049,249.078445 212.306412,253.693787 
	C210.446686,255.574982 208.507980,255.477478 206.679138,253.502487 
	C204.876160,251.555450 203.983948,249.356293 206.325394,247.433884 
	C211.066254,243.541458 209.592499,240.265396 205.842072,236.810654 
	C203.026215,234.216797 200.373825,231.439255 197.734375,228.662018 
	C195.470901,226.280441 193.437149,226.000275 191.022400,228.572876 
	C189.479416,230.216751 187.769562,232.104446 184.988785,231.119888 
	C181.257278,229.798721 180.461472,226.509918 183.074661,223.399124 
	C184.438843,221.775192 186.354813,220.550064 187.046371,217.879639 
	C182.565506,213.457047 177.909973,208.960068 173.372238,204.347183 
	C170.577301,201.505951 168.572647,203.456985 166.626343,205.315353 
	C164.458893,207.384888 162.481461,209.446106 159.618927,206.261444 
	C157.004349,203.352600 158.401810,200.843979 160.662170,198.920303 
	C163.842880,196.213348 163.134552,194.068863 160.575546,191.531097 
	C156.329544,187.320389 152.226547,182.965469 148.201080,178.813385 
	C145.255753,179.529236 143.911880,181.607666 142.050674,182.911560 
	C139.736923,184.532486 137.684509,184.390045 135.817413,182.386459 
	C134.042252,180.481506 134.101105,178.148041 135.881531,176.560181 
	C140.690979,172.270828 138.922623,169.002197 134.803131,165.680862 
	C132.996704,164.224457 131.489990,162.400711 129.810043,160.782303 
	C124.255356,155.431107 124.214363,155.386612 117.853020,159.669495 
	C115.848831,161.018845 114.221405,161.004837 112.538506,159.289597 
	C110.809937,157.527802 110.320099,155.814835 111.885933,153.551300 
	C116.182877,147.339767 116.129631,147.286087 110.952530,141.937073 
	C108.866745,139.782028 106.577385,137.806213 104.643768,135.525757 
	C101.598289,131.933990 98.679741,131.719055 95.286652,135.558594 
M377.963867,361.515472 
	C379.421600,359.431610 383.149536,357.963745 379.927612,354.586670 
	C375.676270,350.130707 371.394653,345.703461 367.103973,341.285309 
	C365.339844,339.468750 363.631256,339.057861 361.590973,341.144043 
	C355.536041,347.335175 349.394104,353.442444 343.217896,359.513031 
	C341.140137,361.555206 340.981110,363.315796 343.150421,365.410828 
	C347.222839,369.343658 351.259644,373.320679 355.151123,377.430939 
	C357.757172,380.183533 359.869324,379.660522 362.274933,377.196960 
	C367.277069,372.074432 372.404327,367.074097 377.963867,361.515472 
M143.704300,117.521927 
	C139.797150,113.454956 135.864914,109.411682 131.993073,105.311378 
	C129.942856,103.140198 128.166870,103.362862 126.106422,105.405098 
	C119.856544,111.599754 113.542816,117.731850 107.162415,123.791954 
	C104.926552,125.915581 105.195251,127.623199 107.272484,129.618027 
	C110.865105,133.068146 114.471893,136.520218 117.825615,140.196884 
	C120.351799,142.966339 122.496651,142.729172 124.902046,140.237762 
	C130.782761,134.146774 136.711044,128.101624 142.576431,121.995979 
	C143.581436,120.949791 144.785233,119.847763 143.704300,117.521927 
M410.111511,389.737579 
	C404.007416,395.838379 397.964600,402.002472 391.766388,408.006134 
	C389.559113,410.144104 389.016357,411.791779 391.550476,414.106750 
	C395.468628,417.686005 399.231781,421.445770 402.903809,425.279236 
	C404.837219,427.297729 406.360443,427.234528 408.335724,425.375336 
	C414.621307,419.459045 420.796509,413.443054 426.651459,407.092194 
	C428.754242,404.811279 428.915771,402.941315 426.659576,400.727661 
	C422.869324,397.008972 419.136230,393.227783 415.492065,389.366272 
	C413.771637,387.543213 412.267456,387.204163 410.111511,389.737579 
M324.270660,298.233185 
	C322.200104,295.678284 320.129578,293.123383 317.692047,290.115601 
	C309.200043,298.693604 301.975037,306.015076 294.719116,313.305725 
	C292.774048,315.260101 294.161499,316.529755 295.505188,317.866364 
	C299.279785,321.621124 303.157684,325.280121 306.780914,329.175873 
	C308.901520,331.456024 310.550354,331.227753 312.587128,329.202728 
	C316.596802,325.216187 320.838623,321.457642 324.758087,317.386841 
	C335.111908,306.633301 334.726227,309.395630 324.270660,298.233185 
M345.023132,344.523438 
	C348.181427,341.330627 351.274261,338.069244 354.521210,334.969269 
	C356.657196,332.929901 356.708282,331.083008 354.670685,329.020264 
	C351.048920,325.353790 347.400116,321.710876 343.879028,317.949188 
	C341.587280,315.500916 339.524017,315.428314 337.156952,317.819916 
	C331.307404,323.730164 325.404938,329.588593 319.480316,335.423767 
	C317.265900,337.604736 317.130524,339.637848 319.484528,341.784790 
	C320.465179,342.679169 321.319122,343.711212 322.249268,344.662506 
	C333.393860,356.060181 333.394775,356.059296 345.023132,344.523438 
M237.053162,259.266388 
	C239.074295,261.320221 240.676086,259.989929 242.154068,258.547485 
	C248.219162,252.628159 254.212738,246.635254 260.304779,240.744034 
	C262.400665,238.717224 262.560028,236.877350 260.470764,234.799255 
	C256.584595,230.933945 252.725815,227.040817 248.884827,223.130585 
	C246.951233,221.162155 245.259918,221.400894 243.382874,223.311203 
	C237.325073,229.476395 231.220764,235.597061 225.058334,241.657578 
	C222.873291,243.806519 223.204437,245.547501 225.260483,247.534943 
	C229.084488,251.231415 232.790970,255.049469 237.053162,259.266388 
M155.289032,156.787582 
	C158.952972,152.919037 162.541702,148.975128 166.311844,145.213013 
	C168.262146,143.266846 168.393295,141.700485 166.368500,139.773102 
	C162.632538,136.216873 158.981110,132.570816 155.334045,128.922607 
	C153.447601,127.035553 151.707230,127.066551 149.690460,128.813950 
	C143.009109,134.602875 136.805939,140.873886 130.767990,147.315048 
	C129.236435,148.948853 128.655548,150.756729 130.467300,152.597046 
	C135.107712,157.310638 139.773163,161.999603 145.898361,168.181870 
	C149.130371,164.222717 151.960175,160.756287 155.289032,156.787582 
M190.745041,181.248596 
	C186.635880,185.593307 182.607941,190.019104 178.385147,194.250427 
	C176.083832,196.556396 176.322083,198.490997 178.447159,200.621246 
	C181.498825,203.680252 184.695679,206.622009 187.486710,209.906052 
	C190.582245,213.548401 193.179367,212.896545 196.147095,209.853363 
	C199.975754,205.927368 204.016876,202.209518 207.889938,198.325653 
	C216.233093,189.959213 216.216827,189.935623 207.913330,181.283203 
	C197.970154,170.922195 200.935623,172.820175 190.745041,181.248596 
M271.751160,276.252350 
	C276.763763,271.258179 281.776398,266.264038 287.121643,260.938477 
	C281.802521,255.852661 277.082886,251.421982 272.464966,246.887726 
	C270.367096,244.827896 268.611115,245.532425 266.875183,247.228226 
	C262.588593,251.415756 258.282471,255.585037 254.072540,259.848877 
	C244.549362,269.493988 245.593185,267.851685 253.993744,276.279785 
	C264.205170,286.524689 261.225800,285.232849 271.751160,276.252350 
M118.947067,98.606514 
	C121.403885,96.686172 121.726326,94.858437 119.204506,92.543465 
	C115.407166,89.057587 111.792252,85.366203 108.208496,81.657150 
	C106.252548,79.632812 104.595978,79.107254 102.387032,81.396790 
	C96.491898,87.507042 90.472961,93.498276 84.476372,99.510025 
	C81.976723,102.015984 82.086319,104.375908 84.580116,106.819328 
	C87.790367,109.964691 91.052635,113.071068 94.064423,116.400558 
	C96.595390,119.198517 98.629929,118.868866 101.105980,116.339134 
	C106.812050,110.509315 112.671608,104.829727 118.947067,98.606514 
M238.387772,214.299988 
	C234.878235,207.117722 228.359055,202.795547 222.434341,196.681702 
	C214.973679,204.343536 207.949371,211.607483 200.856979,218.804321 
	C199.154617,220.531769 199.467072,221.890396 201.046600,223.429825 
	C204.968262,227.251892 208.881165,231.085495 212.700409,235.009064 
	C214.851044,237.218460 216.649338,236.776733 218.617035,234.797333 
	C225.163666,228.211746 232.101105,222.010452 238.387772,214.299988 
M183.039154,156.447586 
	C179.886719,154.229065 177.754944,148.308655 172.547928,153.336456 
	C166.439194,159.234894 160.467331,165.274857 154.403671,171.220367 
	C152.707932,172.883072 152.226105,174.451050 154.122971,176.314468 
	C157.923248,180.047668 161.673172,183.832306 165.428741,187.610748 
	C167.286026,189.479324 169.049026,189.584137 171.022247,187.681595 
	C175.215103,183.638931 179.646179,179.834534 183.714783,175.673523 
	C194.297211,164.850754 194.317734,168.084625 183.039154,156.447586 
M373.097534,379.594269 
	C371.935120,380.785980 370.868988,382.094513 369.591797,383.146942 
	C366.120544,386.007233 366.083069,388.703369 369.423645,391.776886 
	C372.850281,394.929596 376.077850,398.304016 379.308075,401.662628 
	C381.011810,403.434204 382.544312,403.704285 384.373474,401.864258 
	C390.591217,395.609436 396.884979,389.429993 403.080200,383.153137 
	C405.027863,381.179840 405.031036,379.044464 402.946075,377.040192 
	C399.347595,373.580994 395.649689,370.215118 392.212555,366.601685 
	C389.882263,364.151855 388.125366,364.602875 386.002167,366.784821 
	C381.940125,370.959229 377.736694,374.996094 373.097534,379.594269 
M273.223694,287.623230 
	C270.153839,290.289459 270.375397,292.836578 273.265289,295.570618 
	C276.761108,298.877960 280.119781,302.332855 283.476288,305.783722 
	C285.219879,307.576355 286.760773,307.609802 288.545044,305.811707 
	C294.625427,299.684174 300.745697,293.595764 306.895416,287.537811 
	C309.361877,285.108124 308.944000,282.926422 306.631866,280.723236 
	C303.267822,277.517731 299.801117,274.405701 296.624146,271.022858 
	C294.232483,268.476257 292.247559,268.681793 289.954468,270.983826 
	C284.565338,276.393921 279.121216,281.749176 273.223694,287.623230 
z"/>
<path fill="#000000" opacity="1.000000" stroke="none" 
	d="
M153.787720,394.422729 
	C152.038101,392.574921 150.545639,392.287231 148.870819,394.018127 
	C145.049744,397.967102 141.189255,401.878204 137.320923,405.781067 
	C135.074997,408.046967 135.406967,410.071381 137.613617,412.183777 
	C138.928757,413.442810 140.063721,414.911102 141.154282,416.378540 
	C142.675644,418.425659 141.664993,420.148010 140.217300,421.710266 
	C138.712891,423.333710 137.046661,423.317780 135.316162,422.062134 
	C134.912186,421.769043 134.521286,421.457886 134.125107,421.154083 
	C127.189011,415.835022 127.180107,415.825775 121.010033,421.835785 
	C118.623550,424.160339 116.407127,426.674164 113.899216,428.855743 
	C110.601677,431.724182 110.690315,434.295258 113.896973,437.116791 
	C115.255920,438.312500 116.771385,439.674835 116.835281,441.610596 
	C116.906891,443.779938 115.415176,445.288605 113.723701,446.446655 
	C111.705391,447.828491 110.331024,446.364258 108.907166,445.192902 
	C103.088860,440.406586 103.096695,440.425201 97.704391,444.952332 
	C96.225639,446.193817 94.636711,448.222382 92.641739,446.057922 
	C90.812950,444.073792 92.609238,442.340393 93.796837,440.804260 
	C98.229546,435.070923 98.288666,435.055145 93.101845,429.791779 
	C88.074318,424.690125 82.916443,419.716461 77.912521,414.592133 
	C75.582352,412.205963 73.544693,411.945068 71.239548,414.581421 
	C69.818901,416.206207 68.247086,417.731415 66.574036,419.093628 
	C64.916534,420.443115 63.264828,423.515686 60.844124,421.231812 
	C58.152061,418.691956 61.316288,416.821289 62.731750,415.015045 
	C64.060974,413.318817 65.605568,411.763947 67.208344,410.316223 
	C69.387489,408.347961 70.236626,406.532104 67.756989,404.087433 
	C65.834656,402.192291 64.813927,399.995819 67.359650,397.628326 
	C69.723030,395.430328 72.054230,395.196350 74.341309,397.580750 
	C76.593834,399.929108 78.396141,398.940735 80.250351,397.065155 
	C83.177887,394.103821 86.189346,391.225281 89.107559,388.255005 
	C91.865952,385.447388 95.378777,382.953247 91.199738,378.374237 
	C89.751701,376.787628 91.146767,374.545715 92.805595,373.162781 
	C94.412849,371.822815 96.371506,371.601959 97.818436,373.057648 
	C101.054260,376.313049 103.219643,374.593994 105.572517,371.961731 
	C107.901024,369.356720 110.443382,366.941315 112.918724,364.469543 
	C115.725807,361.666504 119.242630,359.147705 114.831253,354.771088 
	C113.465302,353.415894 114.429314,351.593536 115.632530,350.292847 
	C117.175362,348.625000 119.241043,347.978333 120.983948,349.479767 
	C124.522934,352.528625 126.830803,350.756775 129.352707,348.089203 
	C132.784225,344.459473 136.294724,340.885193 139.998566,337.538574 
	C142.660904,335.132965 143.048843,333.188843 140.261627,330.597748 
	C138.435440,328.900024 136.819809,326.849243 139.165176,324.135559 
	C141.306381,321.658051 143.339203,320.203064 146.053482,323.331451 
	C149.049545,326.784637 151.729813,326.284515 154.583084,322.940186 
	C157.388580,319.651886 160.527695,316.646118 163.552063,313.547272 
	C165.760315,311.284637 166.157257,309.057678 163.786270,306.611908 
	C161.897415,304.663452 160.739639,302.572693 163.215012,300.145935 
	C165.714127,297.695953 168.009628,298.296326 170.111130,300.584015 
	C172.580170,303.271759 174.735703,302.361206 176.908417,300.232056 
	C180.120468,297.084473 183.232895,293.820801 186.610916,290.861298 
	C189.593735,288.248016 190.094193,285.888367 187.020447,283.047546 
	C185.103775,281.276093 183.498215,279.488983 186.292801,276.859894 
	C188.829041,274.473877 191.178131,273.883148 193.534821,276.636017 
	C196.352234,279.927094 198.595428,279.288727 201.159241,276.309235 
	C203.214935,273.920227 205.572876,271.764954 207.965225,269.701355 
	C209.517807,268.362122 211.373123,266.110992 213.536133,268.156189 
	C215.863556,270.356842 213.340271,272.070679 212.027603,273.574768 
	C209.839813,276.081512 207.502960,278.472504 205.084335,280.759399 
	C202.693665,283.019867 202.374023,284.934082 204.953308,287.413055 
	C211.076828,293.298340 217.062347,299.330933 222.985138,305.419312 
	C225.077377,307.570038 226.784088,307.616943 228.842361,305.486450 
	C231.271683,302.971863 233.787292,300.532990 236.375198,298.182037 
	C237.914825,296.783386 239.704239,294.515289 241.887909,296.557404 
	C244.488113,298.989044 241.761703,300.835297 240.259491,302.315613 
	C236.961746,305.565277 233.393311,308.540283 230.204391,311.920410 
	C231.715179,314.934143 233.575928,316.436005 235.053619,318.196136 
	C236.519333,319.942017 237.190781,321.581543 235.307709,323.425690 
	C233.390320,325.303406 231.468353,326.480957 228.717178,324.685577 
	C222.304474,320.500763 222.259201,320.559265 216.665436,326.119354 
	C215.129623,327.645905 213.604996,329.185059 212.114838,330.756012 
	C207.158981,335.980408 207.101944,336.034943 211.484985,341.872864 
	C213.084793,344.003662 213.075821,345.710907 211.194931,347.562012 
	C209.199463,349.525909 206.970184,350.017975 205.124084,347.802246 
	C201.171616,343.058411 197.893173,344.676727 194.467957,348.372467 
	C192.092178,350.935913 189.627350,353.440125 187.003479,355.744385 
	C183.848938,358.514648 183.445328,361.033752 186.753723,364.002136 
	C188.496399,365.565735 189.980255,367.431152 188.351120,370.109131 
	C186.149200,373.728638 183.581284,374.254608 180.398819,370.676880 
	C176.997375,366.853058 174.702698,367.534515 171.687958,370.997620 
	C168.304611,374.884186 164.543549,378.457581 160.787979,381.998779 
	C158.322372,384.323669 158.149277,386.360138 160.653381,388.698822 
	C161.864761,389.830200 162.953796,391.113739 163.970398,392.427277 
	C165.331619,394.186096 165.661957,396.068054 163.965714,397.836639 
	C162.189789,399.688324 160.153534,399.823151 158.146240,398.297150 
	C156.693726,397.192902 155.405624,395.872406 153.787720,394.422729 
M163.938568,354.563232 
	C159.565887,350.221436 155.173126,345.899567 150.829865,341.528564 
	C148.932037,339.618622 147.049240,338.819305 144.862442,341.065186 
	C140.681946,345.358673 136.492508,349.643494 132.302521,353.927734 
	C130.277969,355.997833 130.465042,357.872406 132.488434,359.926666 
	C136.692947,364.195343 140.524506,368.857788 144.938797,372.888000 
	C154.610977,381.718689 152.211075,381.375275 161.609665,372.771301 
	C162.591614,371.872437 163.517914,370.911041 164.445984,369.955322 
	C172.273972,361.893768 172.705627,363.580139 163.938568,354.563232 
M119.424965,414.988129 
	C120.625114,413.205444 123.714874,411.662170 121.393883,409.154785 
	C114.315559,401.507965 106.932312,394.148529 98.221214,387.151123 
	C93.221474,392.313019 88.527054,397.230957 83.744637,402.061768 
	C81.858711,403.966827 82.353188,405.485718 84.031609,407.141449 
	C90.307457,413.332275 96.560944,419.545990 102.790253,425.783630 
	C104.834145,427.830261 106.646828,427.890778 108.712029,425.722961 
	C112.037849,422.231842 115.520828,418.890503 119.424965,414.988129 
M158.140335,327.649963 
	C156.610107,329.436951 153.815399,330.926819 156.673553,333.759918 
	C163.163269,340.192780 169.662674,346.615906 176.149216,353.051941 
	C177.864639,354.754028 179.522873,354.931549 181.292450,353.095947 
	C185.096527,349.149994 188.943375,345.245270 192.770111,341.321136 
	C194.445679,339.602936 194.501770,337.991699 192.790848,336.138153 
	C186.814789,329.663879 180.598495,323.440033 174.158493,317.426086 
	C171.901840,315.318695 170.149307,315.733398 168.208420,317.688507 
	C165.048096,320.871979 161.830414,323.998505 158.140335,327.649963 
M194.569244,291.936584 
	C189.249527,295.730896 185.153183,300.789551 180.660782,305.435333 
	C178.792587,307.367310 179.139114,309.254730 180.987274,311.088074 
	C187.012955,317.065491 193.016754,323.065277 198.991455,329.093628 
	C200.855560,330.974457 202.824295,331.206787 204.658752,329.349548 
	C209.192764,324.759247 213.599030,320.042816 217.827133,315.617279 
	C210.320480,307.798615 202.749283,299.912720 194.569244,291.936584 
M127.870468,368.668274 
	C122.608543,363.942963 122.550636,363.879517 117.389610,368.589691 
	C114.317093,371.393799 111.475044,374.449341 108.502464,377.364410 
	C106.585022,379.244690 106.559456,380.943420 108.539452,382.892731 
	C114.829292,389.084991 121.070389,395.328461 127.236313,401.643921 
	C129.218750,403.674438 130.876205,403.513580 132.719254,401.608551 
	C136.191818,398.019226 139.675888,394.440521 143.196823,390.898773 
	C145.518661,388.563232 145.502029,386.455139 143.106033,384.093903 
	C138.125336,379.185699 133.281494,374.138641 127.870468,368.668274 
z"/>
<path fill="#000000" opacity="1.000000" stroke="none" 
	d="
M391.275299,85.246284 
	C393.176483,83.355156 394.750427,81.620964 396.497101,80.082886 
	C400.228088,76.797470 403.548157,73.669983 397.708923,69.216370 
	C395.591400,67.601311 397.145325,65.951706 398.573395,64.684792 
	C399.976990,63.439610 401.361877,60.964767 403.497711,63.015308 
	C406.624420,66.017174 409.516052,67.540527 413.334167,64.215813 
	C414.220062,63.444405 415.609924,63.574306 416.521759,64.581558 
	C417.626038,65.801353 417.293671,67.243492 416.325745,68.195137 
	C412.848053,71.614250 414.944183,74.117592 417.504791,76.594543 
	C423.249969,82.152023 429.073303,87.630753 434.732056,93.274605 
	C436.950348,95.487030 438.837708,95.792244 441.034637,93.417603 
	C441.819092,92.569687 442.739349,91.808617 443.709686,91.181175 
	C444.953827,90.376717 446.381775,89.370148 447.787018,90.691879 
	C449.440643,92.247192 448.239197,93.735596 447.305206,95.115097 
	C446.840759,95.801025 446.343994,96.509262 445.716400,97.033096 
	C442.548309,99.677345 442.735229,102.210526 445.665436,104.947044 
	C447.559174,106.715584 450.084900,108.485420 447.157196,111.499222 
	C444.308105,114.432091 441.684296,113.394272 439.412598,110.958656 
	C436.577087,107.918503 434.286804,108.215691 431.594360,111.193474 
	C428.470886,114.647942 425.115509,117.910896 421.677704,121.056908 
	C419.169891,123.351830 418.983490,125.162796 421.551208,127.620644 
	C423.203644,129.202362 425.832214,130.763901 424.525909,133.851669 
	C423.128296,137.155197 419.228333,138.068741 416.376923,135.260971 
	C412.733215,131.673080 410.011414,132.179779 406.908691,135.800339 
	C404.204468,138.955902 401.177490,141.839310 398.234070,144.783966 
	C395.900085,147.118942 395.845184,149.287842 398.246674,151.646484 
	C400.450623,153.811096 402.601898,156.047379 399.427490,159.209915 
	C396.418152,162.208023 394.262787,160.155670 392.287262,158.062103 
	C389.807495,155.434128 387.577850,155.462799 385.090546,157.963409 
	C381.568024,161.504852 378.022217,165.027328 374.376373,168.440445 
	C371.981689,170.682281 372.202209,172.593582 374.513672,174.696533 
	C375.481079,175.576691 376.309570,176.690109 376.943481,177.839600 
	C378.275208,180.254486 376.764618,181.937546 375.182098,183.507675 
	C373.544342,185.132553 371.949097,184.784225 370.341370,183.379562 
	C368.595490,181.854172 366.789703,180.397354 364.751740,178.694839 
	C359.707001,183.602112 354.551483,188.236816 349.872589,193.310989 
	C347.059998,196.361130 350.879181,197.944809 352.355530,199.773087 
	C355.086243,203.154709 354.631958,205.916153 350.824005,207.430069 
	C348.499634,208.354141 346.809265,207.084290 345.547607,205.600952 
	C342.274658,201.752914 339.756195,202.751221 336.680298,206.026169 
	C332.827576,210.128143 328.480713,213.765976 324.684540,217.290863 
	C325.680939,220.729980 327.837921,221.977859 329.166229,223.837738 
	C330.559143,225.788101 331.440460,227.518341 329.254486,229.498123 
	C327.177094,231.379547 325.097534,232.304291 322.667267,230.139023 
	C321.921326,229.474411 321.116760,228.867142 320.428101,228.148285 
	C318.352051,225.981262 316.505493,226.292999 314.499451,228.353943 
	C311.130981,231.814590 307.683746,235.204224 304.152802,238.498505 
	C302.583466,239.962646 300.897644,242.976517 298.465515,240.564270 
	C296.003052,238.121964 298.608093,236.030121 300.294006,234.271835 
	C303.751740,230.665649 307.294586,227.140457 310.833099,223.612686 
	C312.291199,222.159012 313.096893,220.808411 311.275269,218.976288 
	C304.122375,211.782288 297.027802,204.530273 289.372559,196.752121 
	C284.806732,201.155334 280.772095,205.249435 276.495697,209.073196 
	C274.716339,210.664230 272.851349,214.397583 270.103058,211.890198 
	C267.258057,209.294586 270.887604,207.165924 272.404175,205.336243 
	C275.268097,201.880997 278.480774,198.711105 281.601715,195.473923 
	C283.489716,193.515594 284.089783,191.681320 281.863159,189.491928 
	C279.620209,187.286514 278.660461,184.871979 281.206726,182.085876 
	C284.199585,178.811127 286.451172,180.683121 288.718567,182.965408 
	C290.086578,184.342422 291.506226,184.747467 293.034973,183.205841 
	C297.815887,178.384598 302.596497,173.563034 307.053711,169.067841 
	C306.882019,165.054626 299.569946,163.762894 304.510651,158.581497 
	C309.808655,153.025391 311.136536,160.939713 315.360870,161.039093 
	C319.763092,156.597107 324.551727,151.774841 329.328491,146.940842 
	C331.415253,144.829056 329.751068,143.360046 328.403076,141.872162 
	C326.865723,140.175247 325.616791,138.434570 327.311096,136.144012 
	C329.468170,133.227859 331.838287,131.519272 334.835114,135.145416 
	C337.281952,138.106079 339.348541,137.573624 341.736053,134.912735 
	C344.958313,131.321594 348.376556,127.890579 351.892334,124.583961 
	C354.324280,122.296669 354.705597,120.299782 352.124084,117.927246 
	C350.010651,115.984932 349.314911,113.926834 351.740234,111.542198 
	C354.013275,109.307259 356.127289,109.367668 358.180511,111.607109 
	C360.769928,114.431404 362.931030,113.701004 365.270294,111.216682 
	C368.122772,108.187218 371.017212,105.160843 374.179810,102.469574 
	C377.634277,99.529922 378.556427,96.847206 374.706696,93.583366 
	C372.837250,91.998436 372.797089,90.248611 374.720490,88.520020 
	C376.468414,86.949127 378.426483,84.627701 380.630646,86.957504 
	C385.068237,91.648109 388.008911,89.080879 391.275299,85.246284 
M364.122070,130.474213 
	C362.514008,129.357040 361.410095,127.537071 359.209259,126.949020 
	C354.019989,130.538467 349.650635,135.085632 345.385651,139.742783 
	C344.056519,141.194138 343.235779,142.706528 344.893433,144.544235 
	C351.887817,152.298401 359.339722,159.574997 367.219604,167.044968 
	C372.126038,162.110016 376.591675,157.668350 380.996338,153.167023 
	C383.174591,150.940933 382.830200,148.799286 380.653931,146.684509 
	C375.284271,141.466553 369.975403,136.186020 364.122070,130.474213 
M396.903442,102.572067 
	C401.654755,107.219315 406.497559,111.777969 411.119934,116.550133 
	C413.530212,119.038513 415.522095,118.999718 417.805847,116.561508 
	C421.097870,113.046890 424.464966,109.602585 427.799988,106.128250 
	C429.735443,104.111923 429.844299,102.215034 427.769501,100.108772 
	C424.039490,96.322105 420.537170,92.310074 416.785248,88.546196 
	C406.497528,78.225807 406.410614,78.203979 396.291351,88.641823 
	C389.156555,96.001190 388.175018,94.071739 396.903442,102.572067 
M368.813965,121.752327 
	C375.022003,128.016739 381.270844,134.241486 387.414825,140.568100 
	C389.431671,142.644928 391.281799,142.915817 393.376007,140.854370 
	C397.289246,137.002319 401.184204,133.131332 405.128876,129.311676 
	C407.043640,127.457581 406.551056,125.898216 404.850159,124.233025 
	C398.428467,117.946098 391.996490,111.667870 385.683136,105.273041 
	C383.541809,103.104073 381.699677,103.236259 379.742157,105.267906 
	C376.165466,108.980034 372.594055,112.697914 369.072937,116.462524 
	C367.784576,117.839943 366.636169,119.355637 368.813965,121.752327 
M335.588165,182.907913 
	C337.023804,184.293610 338.553192,185.596085 339.873993,187.083725 
	C342.073914,189.561432 344.100006,189.779572 346.537994,187.313187 
	C350.156799,183.652222 353.975677,180.189758 357.674744,176.607040 
	C359.118256,175.208923 359.899139,173.759293 358.064606,171.947540 
	C351.559845,165.523468 345.120605,159.033081 338.647308,152.577087 
	C337.099884,151.033844 335.301361,150.839905 333.789917,152.390503 
	C329.176514,157.123428 324.691162,161.981216 319.702087,167.271774 
	C324.712433,172.197281 329.903412,177.300339 335.588165,182.907913 
M325.947144,208.410416 
	C328.664062,205.484222 331.378235,202.555496 334.098907,199.632782 
	C335.603821,198.016159 335.676208,196.447357 334.031891,194.861984 
	C326.866669,187.953522 319.711884,181.034210 312.460663,174.029373 
	C308.007080,178.358658 303.350250,182.818069 298.776306,187.360931 
	C296.567230,189.554993 297.612549,191.574554 299.427307,193.414474 
	C304.571960,198.630432 309.669861,203.894043 314.889099,209.034363 
	C320.070312,214.137253 320.125244,214.081497 325.947144,208.410416 
z"/>
<path fill="#000000" opacity="1.000000" stroke="none" 
	d="
M385.643555,259.786316 
	C387.150055,247.186722 388.594727,234.813751 389.880371,222.424255 
	C390.773499,213.817261 392.238922,212.509644 400.778687,212.662827 
	C404.212982,212.724411 405.935852,213.924377 406.304565,217.512451 
	C407.510895,229.252213 409.000305,240.962891 410.208160,252.702515 
	C410.482178,255.366119 410.932220,257.935455 411.962769,261.471710 
	C414.258698,253.653030 414.142853,246.360535 415.577118,239.344620 
	C417.171234,231.546585 418.405182,223.673431 419.717468,215.819870 
	C420.479675,211.258331 423.526794,211.180481 427.189270,211.492111 
	C430.921936,211.809738 433.662720,212.505554 433.395020,217.226440 
	C432.724518,229.050583 430.354919,240.616714 428.409149,252.249557 
	C425.476746,269.780609 422.472046,287.299927 419.634766,304.846313 
	C418.990845,308.828186 417.623535,311.332550 413.009277,311.094879 
	C408.561707,310.865723 404.395905,311.121582 403.226196,305.123199 
	C401.448700,296.008026 400.784119,286.689545 397.614929,277.653076 
	C396.846771,284.773041 396.084198,291.893616 395.305908,299.012482 
	C395.143127,300.501343 394.930878,301.985046 394.726837,303.469116 
	C394.140106,307.736633 393.657623,311.698883 387.555969,311.483215 
	C380.216461,311.223755 378.529663,310.445679 377.347107,303.465302 
	C372.740814,276.275146 368.242432,249.066483 363.805481,221.848160 
	C363.411987,219.434296 363.753235,216.900635 363.753235,214.281860 
	C367.884399,213.006134 371.880798,213.810806 375.806274,213.640091 
	C378.124176,213.539291 378.223816,215.293655 378.469849,217.041794 
	C380.275696,229.872391 382.125092,242.697052 384.038666,255.511963 
	C384.268799,257.053223 383.940979,258.869263 385.643555,259.786316 
z"/>
<path fill="#000000" opacity="1.000000" stroke="none" 
	d="
M234.919693,157.617859 
	C234.860748,149.659164 234.805054,142.162827 234.799576,134.666458 
	C234.796890,130.991898 234.645462,127.387489 233.392212,123.838173 
	C232.446060,121.158585 232.023819,118.136505 232.887863,115.451752 
	C235.775116,106.480522 234.381149,97.275879 234.815048,88.174393 
	C235.100281,82.191124 235.498932,76.210472 235.630859,70.223885 
	C235.695328,67.297928 236.897583,65.880226 239.778168,65.857750 
	C249.433228,65.782402 259.104950,65.353539 268.703156,66.815208 
	C272.620270,67.411736 275.091370,69.500320 275.077454,73.790558 
	C275.039642,85.450760 275.499664,97.140755 274.789673,108.759491 
	C274.396088,115.199829 273.666901,121.063675 275.144257,127.828094 
	C277.452179,138.395752 276.339508,149.682205 275.422760,160.659149 
	C275.090851,164.633392 272.647064,165.651718 269.205475,165.288651 
	C265.682037,164.916977 261.090393,166.637009 260.379059,160.675034 
	C259.209930,150.876465 259.937683,141.041641 259.646545,131.227722 
	C259.593048,129.424179 259.973114,127.418007 258.362549,126.088692 
	C256.986237,124.952728 255.219391,125.028633 253.576508,125.392159 
	C251.454834,125.861610 251.422058,127.641251 251.392868,129.348892 
	C251.236221,138.509537 251.242920,147.676697 250.875610,156.828857 
	C250.554199,164.837936 249.358459,165.497070 241.590302,165.425110 
	C236.285828,165.375992 235.195145,162.298477 234.919693,157.617859 
M251.828217,97.178421 
	C251.679443,100.493774 251.499619,103.808121 251.392334,107.124817 
	C251.314804,109.521660 252.406921,110.917595 254.940674,110.865067 
	C257.285461,110.816460 258.719666,109.782028 258.711914,107.255836 
	C258.688995,99.783417 258.686890,92.310867 258.633209,84.838669 
	C258.617645,82.672768 257.492462,81.362366 255.259537,81.401184 
	C253.121231,81.438362 252.520050,83.005157 252.415924,84.798668 
	C252.194550,88.611259 252.039703,92.427704 251.828217,97.178421 
z"/>
<path fill="#000000" opacity="1.000000" stroke="none" 
	d="
M237.584778,398.299927 
	C235.472244,392.247528 234.802551,386.640961 237.193954,380.848724 
	C237.854309,379.249237 237.631439,377.243683 237.639984,375.423584 
	C237.681335,366.611053 237.540955,357.795898 237.709305,348.986359 
	C237.822998,343.037537 238.934311,342.079224 244.881912,341.967041 
	C252.375046,341.825653 259.868774,341.760895 267.319244,342.843414 
	C273.559570,343.750153 274.932495,345.275482 275.072266,351.598785 
	C275.282288,361.099731 274.893250,370.580688 274.127594,380.048828 
	C274.060669,380.876556 274.135437,381.809052 273.778229,382.504913 
	C271.442902,387.053955 271.555115,391.163849 275.080048,395.222717 
	C276.001068,396.283295 275.919281,398.402069 275.928284,400.036865 
	C275.985077,410.364594 276.019379,420.693848 275.895966,431.020630 
	C275.815338,437.765808 272.379974,441.145142 265.768372,441.225433 
	C258.939240,441.308350 252.097458,441.048157 245.282684,441.379608 
	C240.169647,441.628265 238.510956,439.447357 238.599060,434.623718 
	C238.760239,425.798553 238.652771,416.965912 238.502457,408.139038 
	C238.448868,404.992889 237.945908,401.854370 237.584778,398.299927 
M259.595673,360.629974 
	C259.445618,358.672089 259.790039,356.335632 256.856354,356.178711 
	C253.862442,356.018585 253.591934,358.190094 253.178497,360.473053 
	C252.220001,365.765900 251.908936,371.031006 252.979889,376.331970 
	C253.436874,378.594055 253.513519,381.465851 256.823090,381.045441 
	C259.609344,380.691498 259.625366,378.140625 259.632874,375.931122 
	C259.649231,371.100464 259.623444,366.269684 259.595673,360.629974 
M253.320297,422.034882 
	C253.376236,424.236481 253.260330,426.608063 256.451111,426.594055 
	C258.401611,426.585510 258.935699,425.177948 258.940186,423.544006 
	C258.964233,414.796570 258.951538,406.049011 258.951538,397.363342 
	C253.536774,396.446228 253.411987,396.498322 253.364426,401.231934 
	C253.297806,407.865112 253.321350,414.499176 253.320297,422.034882 
z"/>
<path fill="#000000" opacity="1.000000" stroke="none" 
	d="
M116.016136,310.156799 
	C111.373444,309.932190 107.226074,309.566040 103.075912,309.531067 
	C99.535248,309.501221 98.765114,307.732758 98.601547,304.520569 
	C97.128746,275.597778 97.855881,246.655579 97.583900,217.722824 
	C97.548775,213.986008 98.723373,212.052216 102.499138,212.002914 
	C112.133598,211.877151 121.773933,211.148041 131.388229,212.558167 
	C135.554764,213.169266 137.413132,215.310425 137.395416,219.578278 
	C137.282852,246.694412 137.313553,273.811127 137.204300,300.927277 
	C137.179520,307.080627 134.690887,309.655182 128.483856,310.066498 
	C124.508072,310.329987 120.502480,310.143585 116.016136,310.156799 
M114.354576,256.499908 
	C114.643646,267.945526 113.632629,279.422150 115.215195,290.839386 
	C115.477760,292.733612 115.557716,294.651550 118.125061,294.623047 
	C120.533470,294.596313 121.725288,293.232971 121.857407,290.865356 
	C121.894371,290.202911 122.019356,289.545837 122.071213,288.883728 
	C123.579956,269.620361 121.781784,250.376648 121.715057,231.122467 
	C121.706268,228.586624 121.781715,225.707230 118.135788,225.816666 
	C114.439957,225.927612 114.319534,228.740067 114.336548,231.576279 
	C114.384407,239.550568 114.354454,247.525330 114.354576,256.499908 
z"/>
</svg>